<?xml version="1.0" encoding="UTF-8"?>
<svg version="1.1" viewBox="0 0 95.488 10.046" xmlns="http://www.w3.org/2000/svg"><path d="m1 1v7.9375h1.2919l0.06718-0.59428c0.17225 0.22049 0.37724 0.39274 0.61495 0.51676 0.24116 0.12058 0.52538 0.18087 0.85266 0.18087 0.36173 0 0.67868-0.068903 0.95085-0.20671 0.27216-0.14125 0.49954-0.33762 0.68213-0.58911 0.18259-0.25149 0.31867-0.55122 0.40824-0.89917 0.093017-0.34796 0.13953-0.73036 0.13953-1.1472v-0.10852c0-0.41341-0.046508-0.79409-0.13953-1.142-0.089572-0.3514-0.22565-0.65285-0.40824-0.90434-0.18259-0.25149-0.41169-0.44786-0.6873-0.58911-0.27216-0.14125-0.59083-0.21187-0.95601-0.21187-0.30317 0-0.56844 0.053398-0.79582 0.16019-0.22393 0.1068-0.41858 0.25666-0.58394 0.44959v-2.8525zm18.354 0v1.1731h1.6743v5.5966h-1.6743v1.1679h4.7284v-1.1679h-1.602v-6.7696zm-3.6308 0.14986c-0.12402 0-0.23771 0.018944-0.34107 0.056843-0.09991 0.037896-0.18603 0.091294-0.25838 0.1602-0.07235 0.065458-0.12919 0.14642-0.17053 0.24288-0.03789 0.093017-0.05684 0.19465-0.05684 0.30489 0 0.11024 0.01894 0.2136 0.05684 0.31006 0.04134 0.093017 0.09819 0.17398 0.17053 0.24288 0.07235 0.06546 0.15848 0.11714 0.25838 0.15503 0.10335 0.037891 0.21704 0.056843 0.34107 0.056843 0.25494 0 0.45648-0.070625 0.60461-0.21187 0.15158-0.1447 0.22738-0.32901 0.22738-0.55294 0-0.22393-0.07579-0.40652-0.22738-0.54777-0.14814-0.14469-0.34968-0.21704-0.60461-0.21704zm10.558 0.82682v1.3694h-1.2764v1.0594h1.2764v2.5425c0 0.36863 0.04823 0.68558 0.1447 0.95085 0.09646 0.26183 0.23254 0.47887 0.40824 0.65112 0.17914 0.16881 0.39274 0.29456 0.64079 0.37724 0.25149 0.079237 0.53055 0.11886 0.83716 0.11886 0.15847 0 0.31867-0.0086 0.48059-0.02585 0.16536-0.013785 0.32384-0.034451 0.47542-0.06201 0.15158-0.027562 0.29456-0.062013 0.42891-0.10335 0.13436-0.044786 0.25149-0.096462 0.3514-0.15503l-0.13953-0.98702c-0.06546 0.017224-0.14469 0.034449-0.23771 0.051676-0.08957 0.017224-0.18776 0.034449-0.29456 0.051676-0.10335 0.013785-0.2136 0.02585-0.33073 0.036174-0.11369 0.010345-0.22565 0.015505-0.3359 0.015505-0.15158 0-0.28939-0.017224-0.41341-0.051676-0.12058-0.034452-0.22393-0.091295-0.31006-0.17053-0.086127-0.082682-0.1533-0.1912-0.20154-0.32556-0.044786-0.1378-0.06718-0.30833-0.06718-0.5116v-2.403h2.0877v-1.0594h-2.0877v-1.3694zm-19.238 1.3694v3.3073c0 0.42375 0.046508 0.7872 0.13953 1.0904 0.096464 0.29973 0.23082 0.54777 0.40308 0.74414 0.17225 0.19293 0.37896 0.33418 0.62012 0.42375s0.50643 0.13436 0.79582 0.13436c0.31695 0 0.60806-0.079237 0.87333-0.23771 0.26872-0.15847 0.49782-0.37724 0.6873-0.65629l0.08268 0.78548h1.3022v-5.5914h-1.4418v3.9222c-0.09302 0.18948-0.2291 0.33934-0.40824 0.44959-0.17914 0.1068-0.41169 0.1602-0.69763 0.1602-0.16881 0-0.31178-0.020664-0.42891-0.062013-0.11713-0.041341-0.21187-0.10852-0.28422-0.20154-0.072345-0.096462-0.12574-0.22221-0.1602-0.37724-0.031006-0.15503-0.046508-0.34623-0.046508-0.57361v-3.3176zm6.3645 0v1.1731h1.5916v3.2504h-1.5916v1.1679h4.5579v-1.1679h-1.5141v-4.4235zm-9.9534 1.0645c0.21704 0 0.39791 0.044786 0.5426 0.13436 0.14469 0.089572 0.25838 0.21187 0.34106 0.3669 0.086125 0.15158 0.14642 0.32901 0.18087 0.53227 0.034454 0.20326 0.051678 0.41858 0.051678 0.64595v0.10852c0 0.24116-0.017224 0.46509-0.051678 0.67179-0.034451 0.20326-0.094739 0.38068-0.18087 0.53227-0.082682 0.14814-0.19465 0.26527-0.3359 0.3514-0.14125 0.082682-0.32039 0.12402-0.53743 0.12402-0.26872 0-0.48576-0.055123-0.65112-0.16536-0.16192-0.11024-0.28767-0.26183-0.37724-0.45475v-2.2273c0.089572-0.19293 0.21532-0.34451 0.37724-0.45475 0.16536-0.11024 0.37896-0.16536 0.64079-0.16536z" fill="#7a7a7a"/><path d="m51.165 1v7.9375h1.4366v-4.0359c0.11369-0.15503 0.25838-0.27561 0.43408-0.36174 0.17914-0.086127 0.3893-0.12919 0.63045-0.12919 0.16536 0 0.3135 0.022384 0.44442 0.067178 0.13091 0.041341 0.24288 0.1068 0.3359 0.19637 0.09302 0.089572 0.16364 0.20671 0.21187 0.3514 0.05167 0.14469 0.07751 0.31695 0.07751 0.51676v3.3951h1.4366v-3.3848c0-0.40996-0.04995-0.75964-0.14986-1.049-0.096457-0.29283-0.23254-0.53227-0.40824-0.7183-0.1757-0.18604-0.38585-0.32212-0.63045-0.40824-0.2446-0.089572-0.51332-0.13436-0.80615-0.13436-0.33073 0-0.63045 0.077512-0.89917 0.23254-0.26527 0.15503-0.49093 0.36863-0.67696 0.64079v-3.1161zm-9.3591 0.14986c-0.12402 0-0.23771 0.018944-0.34106 0.056843-0.09991 0.037896-0.18604 0.091294-0.25838 0.1602-0.07235 0.065458-0.12919 0.14642-0.17053 0.24288-0.03789 0.093017-0.05684 0.19465-0.05684 0.30489 0 0.11024 0.01895 0.2136 0.05684 0.31006 0.04134 0.093017 0.09818 0.17398 0.17053 0.24288 0.07235 0.06546 0.15848 0.11714 0.25838 0.15503 0.10335 0.037891 0.21704 0.056843 0.34106 0.056843 0.25494 0 0.45648-0.070625 0.60461-0.21187 0.15158-0.1447 0.22738-0.32901 0.22738-0.55294 0-0.22393-0.07579-0.40652-0.22738-0.54777-0.14814-0.14469-0.34968-0.21704-0.60461-0.21704zm4.5294 0.82682v1.3694h-1.2764v1.0594h1.2764v2.5425c0 0.36863 0.04823 0.68558 0.14469 0.95085 0.09647 0.26183 0.23254 0.47887 0.40824 0.65112 0.17914 0.16881 0.39274 0.29456 0.64079 0.37724 0.25149 0.079237 0.53054 0.11886 0.83716 0.11886 0.15848 0 0.31867-0.0086 0.48059-0.02585 0.16536-0.013785 0.32384-0.034451 0.47542-0.06201 0.15158-0.027562 0.29456-0.062013 0.42891-0.10335 0.13436-0.044786 0.25149-0.096462 0.3514-0.15503l-0.13952-0.98702c-0.06546 0.017224-0.1447 0.034449-0.23771 0.051676-0.08957 0.017224-0.18776 0.034449-0.29456 0.051676-0.10335 0.013785-0.2136 0.02585-0.33073 0.036174-0.11369 0.010345-0.22566 0.015505-0.3359 0.015505-0.15158 0-0.28939-0.017224-0.41341-0.051676-0.12058-0.034452-0.22393-0.091295-0.31006-0.17053-0.086124-0.082682-0.1533-0.1912-0.20154-0.32556-0.044786-0.1378-0.067178-0.30833-0.067178-0.5116v-2.403h2.0877v-1.0594h-2.0877v-1.3694zm-13.845 1.3694 1.0025 5.5914h1.2609l0.70797-3.5553 0.7338 3.5553h1.2609l1.0025-5.5914h-1.3177l-0.48576 3.8396-0.7028-3.8396h-0.96118l-0.7028 3.8551-0.48576-3.8551zm7.0001 0v1.1731h1.5916v3.2504h-1.5916v1.1679h4.5579v-1.1679h-1.5141v-4.4235z" fill="#a0a0a0"/><path d="m65.492 1v1.1731h1.6743v5.5966h-1.6743v1.1679h4.7284v-1.1679h-1.602v-6.7696zm-6.287 0.41341v7.5241h1.4573v-3.1161h3.2246v-1.1782h-3.2246v-2.0464h3.6277v-1.1834zm14.361 1.8293c-0.37552 0-0.70969 0.048231-1.0025 0.14469-0.2894 0.093017-0.53572 0.22049-0.73897 0.3824-0.19981 0.16192-0.35312 0.34968-0.45992 0.56327-0.10335 0.2136-0.15503 0.43925-0.15503 0.67696h1.4366c0-0.21015 0.06718-0.37724 0.20154-0.50126 0.13436-0.12747 0.34796-0.1912 0.64079-0.1912 0.33073 0 0.58394 0.079237 0.75964 0.23771 0.1757 0.15503 0.26355 0.3669 0.26355 0.63562v0.33073h-0.80099c-0.87161 0-1.5279 0.16192-1.9689 0.48576-0.43753 0.32039-0.65629 0.77515-0.65629 1.3643 0 0.24116 0.04823 0.46509 0.14469 0.6718 0.09647 0.20326 0.23082 0.37896 0.40308 0.5271 0.17226 0.14814 0.37724 0.26355 0.61495 0.34623 0.24116 0.082682 0.50471 0.12402 0.79065 0.12402 0.1757 0 0.33934-0.017224 0.49093-0.051676 0.15158-0.031009 0.28938-0.074073 0.41341-0.12919 0.12747-0.058566 0.24288-0.12575 0.34623-0.20154 0.10336-0.075793 0.19465-0.15675 0.27389-0.24288 0.0172 0.099907 0.03788 0.19465 0.06201 0.28422 0.02413 0.089572 0.05339 0.16881 0.08785 0.23771h1.4573v-0.08785c-0.072371-0.14125-0.1275-0.31006-0.16536-0.50643s-0.056845-0.44442-0.056845-0.74414v-2.3978c0-0.32384-0.06029-0.60806-0.18087-0.85266-0.12058-0.24805-0.28766-0.45303-0.50126-0.61495-0.21359-0.16192-0.46681-0.28422-0.75964-0.3669-0.28939-0.082682-0.60289-0.12402-0.94051-0.12402zm7.6977 0c-0.37552 0-0.72175 0.091295-1.0387 0.27388-0.31696 0.17914-0.58912 0.42719-0.81649 0.74414l-0.067181-0.91467h-1.3384v5.5914h1.4366v-3.359c0.12057-0.28939 0.30144-0.5116 0.5426-0.66663 0.2446-0.15503 0.56844-0.23254 0.97152-0.23254 0.17914 0 0.3669 0.012065 0.56327 0.036174 0.19981 0.020664 0.39446 0.053398 0.58394 0.098187l0.21187-1.4314c-0.1137-0.034454-0.26355-0.065458-0.44959-0.093017-0.18259-0.031006-0.3824-0.046508-0.59944-0.046508zm10.103 0c-0.26872 0-0.49782 0.070623-0.6873 0.21187-0.18603 0.1378-0.33245 0.32728-0.43925 0.56844l-0.04134-0.67696h-1.2351v5.5914h1.3074v-4.1858c0.03789-0.10335 0.08956-0.18603 0.15503-0.24805 0.0689-0.062013 0.15848-0.093017 0.26872-0.093017 0.05515 0 0.10683 0.00863 0.15503 0.025823 0.04822 0.013785 0.08956 0.039621 0.12402 0.077515 0.03793 0.037896 0.06718 0.091295 0.08785 0.1602 0.02066 0.068903 0.03101 0.15675 0.03101 0.26355v3.9998h1.2661v-4.2685c0.0379-0.079237 0.0913-0.14125 0.1602-0.18603 0.0689-0.048234 0.1533-0.072348 0.25321-0.072348 0.05164 0 0.1016 0.00863 0.14986 0.025823 0.05171 0.013785 0.09649 0.041344 0.13436 0.082682 0.03793 0.037896 0.06718 0.091297 0.08785 0.1602 0.02413 0.068903 0.03617 0.15675 0.03617 0.26355v3.9946h1.3074v-3.9894c0-0.31006-0.03102-0.57189-0.09302-0.78548-0.058565-0.21704-0.14296-0.39274-0.25321-0.5271-0.1068-0.1378-0.23427-0.23771-0.38241-0.29972-0.1447-0.062013-0.30145-0.093017-0.47025-0.093017-0.24116 0-0.44786 0.053398-0.62012 0.16019-0.16881 0.10335-0.30833 0.24805-0.41858 0.43408-0.1378-0.39619-0.43236-0.59428-0.88367-0.59428zm-8.0434 0.10335v3.3073c0 0.42375 0.04651 0.7872 0.13953 1.0904 0.09646 0.29973 0.23082 0.54777 0.40307 0.74414 0.17225 0.19293 0.37896 0.33418 0.62012 0.42375 0.24115 0.089572 0.50642 0.13436 0.79582 0.13436 0.31695 0 0.60806-0.079237 0.87333-0.23771 0.26871-0.15847 0.49781-0.37724 0.6873-0.65629l0.08268 0.78548h1.3022v-5.5914h-1.4418v3.9222c-0.09302 0.18948-0.2291 0.33934-0.40824 0.44959-0.17915 0.1068-0.41169 0.1602-0.69763 0.1602-0.16881 0-0.31178-0.020664-0.42891-0.062013-0.11713-0.041341-0.21187-0.10852-0.28422-0.20154-0.07233-0.096462-0.12573-0.22221-0.1602-0.37724-0.031-0.15503-0.04651-0.34623-0.04651-0.57361v-3.3176zm-9.5457 3.0334h0.73381v0.96118c-0.04134 0.072345-0.09819 0.14469-0.17054 0.21704-0.07234 0.068903-0.15847 0.13092-0.25838 0.18603-0.09991 0.055121-0.21188 0.099907-0.3359 0.13436-0.12403 0.034451-0.25838 0.051676-0.40308 0.051676-0.2756 0-0.48231-0.063735-0.62012-0.1912-0.13435-0.12747-0.20154-0.28767-0.20154-0.48059 0-0.12747 0.02416-0.2446 0.07235-0.3514 0.04823-0.11024 0.1223-0.20326 0.22221-0.27905 0.09991-0.079237 0.2291-0.13953 0.38757-0.18087 0.15848-0.044786 0.34968-0.06718 0.57361-0.06718z" fill="#e7672e"/></svg>
