<?xml version="1.0" encoding="UTF-8"?>
<svg version="1.1" viewBox="0 0 189.86 131.74" xmlns="http://www.w3.org/2000/svg"><path fill="#212529" d="m185.56 6.27 0.57-1.56 1.71-4.71-2.64 2.21-2.48 2.07-6.27-2.28 4.27 5.12-0.15 0.45a224.76 224.76 0 0 1-36 30.78 67.85 67.85 0 0 0-10.47-14.47 64.16 64.16 0 0 0-13.19-10.58 63.38 63.38 0 0 0-39.7-8.84l-0.85 0.09h-0.16a63.91 63.91 0 0 0-56.29 62.67q-2.82 2.36-5.37 4.67c-16.06 14.62-21.61 25.86-16.95 34.38 3.41 6.29 11.15 8.73 23.41 7.24a104.72 104.72 0 0 0 14.68-3l0.44-0.12a63.76 63.76 0 0 0 103.42-11.57l-1.12-0.55-11.95-4.86a49.72 49.72 0 0 1-75.37 12.11c6.17-2.29 13-5.08 19.93-8.2 8.11-3.64 16.46-7.73 24.3-12a287.42 287.42 0 0 0 31-19.49q3.39-2.46 6.69-5c4.16-3.25 8.22-6.64 12.14-10.18a187.41 187.41 0 0 0 26.67-29.66c2.32-3.23 4.52-6.51 6.62-9.87 0.4-0.64 0.79-1.28 1.17-1.93l6.24 2.26zm-172.92 93.42c-2.3-2.84 3.88-11.69 12.36-19.83a63.7 63.7 0 0 0 6.48 18.29c-8.48 3.12-16.97 3.85-18.84 1.54zm114.23-48.19a325.51 325.51 0 0 1-34.27 21.5c-9.55 5.22-19.12 9.9-28.26 13.84-6.52 2.81-12.81 5.25-18.74 7.24a49.5 49.5 0 0 1-7.08-20.3 1.33 1.33 0 0 1 0-0.28 49.12 49.12 0 0 1 1.36-18.41 49.85 49.85 0 0 1 41.23-36.49l0.74-0.1h0.11l1-0.09h0.23a49.88 49.88 0 0 1 49.7 28.59c-1.89 1.48-3.89 3-6.02 4.5z"/></svg>
