<svg xmlns="http://www.w3.org/2000/svg" viewBox="0 0 290 288"><path fill="#212529" d="m157.51 115.51c3.4 3.09 4.97 6.83 4.72 11.22-6.72-3.47-9.92-8.26-10.4-14.65l5.68 3.43zm19.76-22.728c9.09-19.838 14.88-40.591 17.37-62.266 1.81 22.982-3.93 43.966-17.37 62.266zm-56.46-37.692l-5.91-18.842-6.74-18.422c10.34 10.359 14.56 22.779 12.65 37.264zm136.87 52.17c-6.74 29.47-42.06 55.39-60.6 63.5 14.96-9.88 49.88-41.9 60.6-63.5zm-9.4-45.55c3.69-9.648 3.79-19.303-0.58-27.623-6.4 39.514-24.14 73.483-53.06 100.14 22.29-26.67 35.71-57.519 40.27-92.23l-8.7 23.464c-1.4 7.31-4.27 14.973-8.45 22.799l8.45-22.799c2.78-14.486-0.24-27.603-10.36-37.861-1.18 29.92-9.8 58.248-25.71 83.087 22.94-41.303 25.59-82.166-3.8-106.37l-2.25 26.196c0.52-16.363-0.01-22.718-1.16-22.718-2.12-0.0069-6.35 21.722-9.95 42.035-0.08 10.244-1.9 21.085-5.5 31.668 1.03-5.515 3.13-18.287 5.5-31.668 0.14-16.736-4.36-31.899-13.28-41.839v23.586c-1.48-13.734-8-23.078-21.13-25.53 7.36 19.208 7.6 38.389 0.34 57.022 0.54-21.051-3.95-41.716-13.14-61.067l2.32 15.936c-2.81-11.952-8.96-17.921-18.41-17.921-5.5-0.007083-12.114 2.0052-19.847 6.0298 7.794 15.638 12.587 32.468 14.067 49.637-9.177-12.704-13.061-24.073-24.826-35.334-7.051 6.755-7.192 10.881-4.558 15.394 4.862 3.624 9.11 10.271 12.825 19.343-4.079-9.302-10.023-14.54-12.825-19.343-2.749-2.053-5.707-3.131-8.868-3.131-5.43-0.006-11.495 3.198-18.242 10.163l11.569 7.392c-1.736 0.488-12.049-2.879-16.533-3.882 0 3.679 18.87 11.512 21.22 16.166-7.996-5.583-16.047-8.618-23.57-8.618-7.686 0-14.818 3.171-20.761 10.007l13.933 0.739c-10.752 0.237-19.141 4.892-24.753 14.513 24.759-9.039 53.355-14.94 78.817-16.072l-5.802-3.651c1.378-0.048 2.783-0.082 4.187-0.082 12.535 0 25.927 2.141 36.977 6.078l-0.51-4.086c11.4 3.916 23.29 10.766 31.67 18.463l0.34-3.469c9.34 8.802 25.93 32.813 27.06 50.453h-5.07c8.35 27.88 11.87 33.45 5.52 62.09-7.41-17.02-18.05-32.39-31.35-45.09l0.46 3.76-30.42-15.67 2.47 4.68c-0.86 0.41-1.96 0.59-3.23 0.59-6.44 0-17.21-4.45-23.09-4.96-14.082 17.61-17.722 32.88-14.73 43.51 2.992 10.64 12.238 25.39 22.88 34.86-35.145-21.57-40.602-49.18-12.29-78.54-18.364 1.5-31.041 10.7-37.916 27.76 6.126-21.85 19.633-32.72 38.652-32.72 6.355 0 13.314 1.22 20.844 3.64l-10.72-9.9c14.37 6.12 28.72 12.3 43.03 18.54l-1.13-4.61c15.91 9.48 27.34 23.21 33.94 40.6 1.31-20.1-5.22-30.3-8.87-50.1l4.63-0.84c-2.16-14.04-8.9-27.035-19.22-37.659l1.97 8.259c-6.28-11.213-16.17-19.269-28.77-23.795l6.42 7.087c-11.73-8.144-25.14-12.365-39.706-12.663l14.336 4.546c-5.92-0.752-11.871-1.132-17.815-1.132-22.679 0-45.344 5.407-66.281 15.55l11.961-0.684c-23.47 6.47-36.329 25.121-37.639 56.931l11.914-20.57c-13.846 35.07-10.077 69.82 9.739 102.91l-6.545-33.47c9.307 41.33 34.357 71.13 74.238 89.58l-10.144-10.88c-4.971-4.19-9.55-9.1-13.711-14.69l13.711 14.69c12.204 10.29 26.772 16.23 43.322 17.11l-17-5.5 22.58 4.71-12.17-10.34c10.48 7.99 22.13 12.1 34.94 12.1 2.35 0 4.73-0.13 7.16-0.41-24.53-9.02-40.84-26.12-49.04-51.15 12.36 23.92 30.96 41.19 55.72 51.86l-4.2-3.08c-5.93-2.81-11.62-6.99-17.05-12.47l17.05 12.47c5.87 2.78 11.96 4.21 18.29 4.21 6.47 0 13.16-1.5 20.05-4.58-28.23-11.56-52.53-28.72-72.92-51.48 20.72 22.15 45.4 34.98 69.95 34.98 7.9 0 15.8-1.33 23.55-4.11-20.54-2.23-39.55-8.77-57-19.63 14.51 8.99 29.31 13.77 43.7 13.77 12.63 0 24.95-3.68 36.5-11.41-34.22-1.37-67.33-8.51-99.17-21.38 14.55 4.01 29.51 6.02 44.38 6.02 19.71 0 39.27-3.53 57.54-10.57-15.28 9.14-31.97 13.59-49.25 13.59-9.72 0-19.61-1.4-29.55-4.16 15.92 6.23 31.11 9.42 45.23 9.42 29.71 0 54.69-14.1 71.81-43.57-33.54 16.8-70.16 25.2-107.85 25.2-5.24 0-10.49-0.16-15.76-0.48 1.42 0.02 2.84 0.04 4.25 0.04 40.38 0 79.27-11.12 112.21-33.16l-14.2 4.96c14.85-6.49 21.11-19.15 19.44-37.35-29.02 31.97-66.84 50.02-110.67 54.09 53.11-9.72 98.82-39.88 118.67-82.51l-11.36 10.67c6.76-9.05 9.94-19.52 8.92-31.13-22.11 33.49-50.77 59.42-85.8 77.97 42.51-23.38 68.05-60 63.17-101.9l-17.46 30.15 8.53-22.031c-12.57 28.041-32.74 49.751-60.52 65.131 37.76-27.24 61.39-68.539 61.64-109.04l-8.67 16.36z"/></svg>
